<svg width="389" height="128" viewBox="0 0 389 128" fill="none" xmlns="http://www.w3.org/2000/svg">
<path fill-rule="evenodd" clip-rule="evenodd" d="M128 54.9286C126.537 61.0437 122.248 63.9425 110.106 63.9425C106.147 63.9425 103.023 63.6028 100.56 62.9344C99.9915 43.6335 84.043 28.1602 64.452 28.1602C46.9403 28.1602 32.3391 40.5231 29.031 56.9318C26.2645 58.0771 22.2355 58.7198 16.3801 58.7198C7.11337 58.7198 2.42116 58.6172 0.0678445 56.5123C3.8049 24.6942 31.0644 0 64.137 0C96.6589 0 123.56 23.8785 128 54.9286ZM28.4644 67.1294C25.7226 65.925 21.8476 65.3372 16.3801 65.3372C7.02345 65.3372 2.33053 67.235 0 70.8853C3.46156 102.994 30.8559 128 64.137 128C95.5143 128 121.659 105.773 127.448 76.3224C125.563 72.7809 120.99 70.56 110.106 70.56C105.797 70.56 102.478 70.5821 99.9226 70.8174C96.7136 87.3509 82.0528 99.8402 64.452 99.8402C45.5642 99.8402 30.0622 85.4579 28.4644 67.1294ZM71.1948 44.4975C71.1948 42.6278 68.8576 41.7805 67.6594 43.2159L51.3881 62.7092C50.301 64.0115 51.227 65.9908 52.9235 65.9908H59.978V82.6836C59.978 84.5534 62.3152 85.4007 63.5134 83.9652L79.7848 64.472C80.8719 63.1696 79.9458 61.1904 78.2494 61.1904H71.1948V44.4975Z" fill="#3657D2"/>
<path d="M153.44 81C153.184 81 152.944 80.904 152.72 80.712C152.528 80.488 152.432 80.248 152.432 79.992C152.432 79.832 152.448 79.688 152.48 79.56L163.76 48.744C163.856 48.392 164.048 48.088 164.336 47.832C164.656 47.544 165.088 47.4 165.632 47.4H172.736C173.28 47.4 173.696 47.544 173.984 47.832C174.304 48.088 174.512 48.392 174.608 48.744L185.84 79.56C185.904 79.688 185.936 79.832 185.936 79.992C185.936 80.248 185.824 80.488 185.6 80.712C185.408 80.904 185.168 81 184.88 81H178.976C178.496 81 178.128 80.888 177.872 80.664C177.648 80.408 177.504 80.184 177.44 79.992L175.568 75.096H162.752L160.928 79.992C160.864 80.184 160.72 80.408 160.496 80.664C160.272 80.888 159.888 81 159.344 81H153.44ZM164.72 68.184H173.648L169.136 55.512L164.72 68.184ZM201.732 81.48C198.532 81.48 195.876 81.032 193.764 80.136C191.652 79.208 190.052 78.008 188.964 76.536C187.876 75.064 187.3 73.496 187.236 71.832C187.236 71.576 187.332 71.352 187.524 71.16C187.748 70.936 188.004 70.824 188.292 70.824H194.34C194.788 70.824 195.124 70.904 195.348 71.064C195.604 71.224 195.828 71.432 196.02 71.688C196.276 72.168 196.628 72.632 197.076 73.08C197.556 73.528 198.164 73.896 198.9 74.184C199.668 74.44 200.612 74.568 201.732 74.568C203.588 74.568 204.98 74.28 205.908 73.704C206.868 73.128 207.348 72.344 207.348 71.352C207.348 70.648 207.092 70.072 206.58 69.624C206.068 69.144 205.236 68.728 204.084 68.376C202.964 67.992 201.46 67.608 199.572 67.224C197.14 66.712 195.06 66.056 193.332 65.256C191.636 64.424 190.34 63.352 189.444 62.04C188.548 60.696 188.1 59.032 188.1 57.048C188.1 55.096 188.644 53.352 189.732 51.816C190.852 50.28 192.404 49.08 194.388 48.216C196.372 47.352 198.724 46.92 201.444 46.92C203.652 46.92 205.588 47.208 207.252 47.784C208.948 48.36 210.372 49.128 211.524 50.088C212.676 51.048 213.54 52.072 214.116 53.16C214.724 54.216 215.044 55.256 215.076 56.28C215.076 56.536 214.98 56.776 214.788 57C214.596 57.192 214.356 57.288 214.068 57.288H207.732C207.38 57.288 207.076 57.224 206.82 57.096C206.564 56.968 206.34 56.76 206.148 56.472C205.956 55.768 205.444 55.16 204.612 54.648C203.812 54.104 202.756 53.832 201.444 53.832C200.036 53.832 198.932 54.088 198.132 54.6C197.364 55.08 196.98 55.832 196.98 56.856C196.98 57.496 197.188 58.056 197.604 58.536C198.052 59.016 198.772 59.432 199.764 59.784C200.788 60.136 202.18 60.504 203.94 60.888C206.852 61.432 209.204 62.12 210.996 62.952C212.788 63.752 214.1 64.808 214.932 66.12C215.764 67.4 216.18 69.016 216.18 70.968C216.18 73.144 215.556 75.032 214.308 76.632C213.092 78.2 211.396 79.4 209.22 80.232C207.044 81.064 204.548 81.48 201.732 81.48ZM229.249 81C228.897 81 228.609 80.888 228.385 80.664C228.161 80.44 228.049 80.152 228.049 79.8V54.936H219.505C219.153 54.936 218.865 54.824 218.641 54.6C218.417 54.344 218.305 54.056 218.305 53.736V48.6C218.305 48.248 218.417 47.96 218.641 47.736C218.865 47.512 219.153 47.4 219.505 47.4H245.329C245.681 47.4 245.969 47.512 246.193 47.736C246.417 47.96 246.529 48.248 246.529 48.6V53.736C246.529 54.056 246.417 54.344 246.193 54.6C245.969 54.824 245.681 54.936 245.329 54.936H236.785V79.8C236.785 80.152 236.673 80.44 236.449 80.664C236.225 80.888 235.937 81 235.585 81H229.249ZM252.091 81C251.739 81 251.451 80.888 251.227 80.664C251.003 80.44 250.891 80.152 250.891 79.8V48.6C250.891 48.248 251.003 47.96 251.227 47.736C251.451 47.512 251.739 47.4 252.091 47.4H265.147C269.275 47.4 272.523 48.36 274.891 50.28C277.291 52.168 278.491 54.856 278.491 58.344C278.491 60.616 277.931 62.536 276.811 64.104C275.723 65.672 274.283 66.856 272.491 67.656L279.115 79.464C279.211 79.656 279.259 79.832 279.259 79.992C279.259 80.248 279.147 80.488 278.923 80.712C278.731 80.904 278.491 81 278.203 81H271.867C271.259 81 270.811 80.856 270.523 80.568C270.235 80.248 270.027 79.96 269.899 79.704L264.427 69.144H259.483V79.8C259.483 80.152 259.371 80.44 259.147 80.664C258.923 80.888 258.635 81 258.283 81H252.091ZM259.483 62.376H265.051C266.555 62.376 267.675 62.008 268.411 61.272C269.179 60.536 269.563 59.528 269.563 58.248C269.563 57 269.195 55.992 268.459 55.224C267.755 54.456 266.619 54.072 265.051 54.072H259.483V62.376ZM297.666 81.48C294.722 81.48 292.162 81 289.986 80.04C287.81 79.08 286.114 77.64 284.898 75.72C283.682 73.768 283.01 71.336 282.882 68.424C282.85 67.048 282.834 65.672 282.834 64.296C282.834 62.92 282.85 61.528 282.882 60.12C283.01 57.24 283.682 54.824 284.898 52.872C286.146 50.888 287.858 49.4 290.034 48.408C292.21 47.416 294.754 46.92 297.666 46.92C300.546 46.92 303.074 47.416 305.25 48.408C307.458 49.4 309.186 50.888 310.434 52.872C311.682 54.824 312.354 57.24 312.45 60.12C312.514 61.528 312.546 62.92 312.546 64.296C312.546 65.672 312.514 67.048 312.45 68.424C312.322 71.336 311.65 73.768 310.434 75.72C309.218 77.64 307.522 79.08 305.346 80.04C303.17 81 300.61 81.48 297.666 81.48ZM297.666 74.568C299.362 74.568 300.738 74.056 301.794 73.032C302.882 72.008 303.458 70.376 303.522 68.136C303.586 66.728 303.618 65.4 303.618 64.152C303.618 62.904 303.586 61.608 303.522 60.264C303.458 58.76 303.17 57.544 302.658 56.616C302.178 55.656 301.506 54.952 300.642 54.504C299.778 54.056 298.786 53.832 297.666 53.832C296.578 53.832 295.602 54.056 294.738 54.504C293.874 54.952 293.186 55.656 292.674 56.616C292.162 57.544 291.874 58.76 291.81 60.264C291.778 61.608 291.762 62.904 291.762 64.152C291.762 65.4 291.778 66.728 291.81 68.136C291.906 70.376 292.482 72.008 293.538 73.032C294.594 74.056 295.97 74.568 297.666 74.568ZM319.31 81C318.99 81 318.702 80.888 318.446 80.664C318.222 80.44 318.11 80.152 318.11 79.8V48.6C318.11 48.248 318.222 47.96 318.446 47.736C318.702 47.512 318.99 47.4 319.31 47.4H324.494C325.006 47.4 325.39 47.544 325.646 47.832C325.934 48.088 326.11 48.296 326.174 48.456L334.622 63.624L343.07 48.456C343.166 48.296 343.326 48.088 343.55 47.832C343.806 47.544 344.206 47.4 344.75 47.4H349.886C350.238 47.4 350.526 47.512 350.75 47.736C351.006 47.96 351.134 48.248 351.134 48.6V79.8C351.134 80.152 351.006 80.44 350.75 80.664C350.526 80.888 350.238 81 349.886 81H344.174C343.822 81 343.518 80.888 343.262 80.664C343.038 80.44 342.926 80.152 342.926 79.8V61.8L337.502 71.832C337.374 72.12 337.182 72.376 336.926 72.6C336.67 72.824 336.318 72.936 335.87 72.936H333.374C332.926 72.936 332.574 72.824 332.318 72.6C332.062 72.376 331.854 72.12 331.694 71.832L326.27 61.8V79.8C326.27 80.152 326.158 80.44 325.934 80.664C325.71 80.888 325.422 81 325.07 81H319.31ZM355.893 81C355.637 81 355.397 80.904 355.173 80.712C354.981 80.488 354.885 80.248 354.885 79.992C354.885 79.832 354.901 79.688 354.933 79.56L366.213 48.744C366.309 48.392 366.501 48.088 366.789 47.832C367.109 47.544 367.541 47.4 368.085 47.4H375.189C375.733 47.4 376.149 47.544 376.437 47.832C376.757 48.088 376.965 48.392 377.061 48.744L388.293 79.56C388.357 79.688 388.389 79.832 388.389 79.992C388.389 80.248 388.277 80.488 388.053 80.712C387.861 80.904 387.621 81 387.333 81H381.429C380.949 81 380.581 80.888 380.325 80.664C380.101 80.408 379.957 80.184 379.893 79.992L378.021 75.096H365.205L363.381 79.992C363.317 80.184 363.173 80.408 362.949 80.664C362.725 80.888 362.341 81 361.797 81H355.893ZM367.173 68.184H376.101L371.589 55.512L367.173 68.184Z" fill="#3657D2"/>
</svg>
