<svg width="237" height="187" viewBox="0 0 237 187" fill="none" xmlns="http://www.w3.org/2000/svg">
<path fill-rule="evenodd" clip-rule="evenodd" d="M182 54.9286C180.537 61.0437 176.248 63.9425 164.106 63.9425C160.147 63.9425 157.023 63.6028 154.56 62.9344C153.992 43.6335 138.043 28.1602 118.452 28.1602C100.94 28.1602 86.3391 40.5231 83.031 56.9318C80.2645 58.0771 76.2355 58.7198 70.3801 58.7198C61.1134 58.7198 56.4212 58.6172 54.0678 56.5123C57.8049 24.6942 85.0644 0 118.137 0C150.659 0 177.56 23.8785 182 54.9286ZM82.4644 67.1294C79.7226 65.925 75.8476 65.3372 70.3801 65.3372C61.0235 65.3372 56.3305 67.235 54 70.8853C57.4616 102.994 84.8559 128 118.137 128C149.514 128 175.659 105.773 181.448 76.3224C179.563 72.7809 174.99 70.56 164.106 70.56C159.797 70.56 156.478 70.5821 153.923 70.8174C150.714 87.3509 136.053 99.8402 118.452 99.8402C99.5642 99.8402 84.0622 85.4579 82.4644 67.1294ZM125.195 44.4975C125.195 42.6278 122.858 41.7805 121.659 43.2159L105.388 62.7092C104.301 64.0115 105.227 65.9908 106.923 65.9908H113.978V82.6836C113.978 84.5534 116.315 85.4007 117.513 83.9652L133.785 64.472C134.872 63.1696 133.946 61.1904 132.249 61.1904H125.195V44.4975Z" fill="#374151"/>
<path d="M1.44 186C1.184 186 0.944 185.904 0.72 185.712C0.528 185.488 0.432 185.248 0.432 184.992C0.432 184.832 0.448 184.688 0.48 184.56L11.76 153.744C11.856 153.392 12.048 153.088 12.336 152.832C12.656 152.544 13.088 152.4 13.632 152.4H20.736C21.28 152.4 21.696 152.544 21.984 152.832C22.304 153.088 22.512 153.392 22.608 153.744L33.84 184.56C33.904 184.688 33.936 184.832 33.936 184.992C33.936 185.248 33.824 185.488 33.6 185.712C33.408 185.904 33.168 186 32.88 186H26.976C26.496 186 26.128 185.888 25.872 185.664C25.648 185.408 25.504 185.184 25.44 184.992L23.568 180.096H10.752L8.928 184.992C8.864 185.184 8.72 185.408 8.496 185.664C8.272 185.888 7.888 186 7.344 186H1.44ZM12.72 173.184H21.648L17.136 160.512L12.72 173.184ZM49.7318 186.48C46.5318 186.48 43.8758 186.032 41.7638 185.136C39.6518 184.208 38.0518 183.008 36.9638 181.536C35.8758 180.064 35.2998 178.496 35.2358 176.832C35.2358 176.576 35.3318 176.352 35.5238 176.16C35.7478 175.936 36.0038 175.824 36.2918 175.824H42.3398C42.7878 175.824 43.1238 175.904 43.3478 176.064C43.6038 176.224 43.8278 176.432 44.0198 176.688C44.2758 177.168 44.6278 177.632 45.0758 178.08C45.5558 178.528 46.1638 178.896 46.8998 179.184C47.6678 179.44 48.6118 179.568 49.7318 179.568C51.5878 179.568 52.9798 179.28 53.9078 178.704C54.8678 178.128 55.3478 177.344 55.3478 176.352C55.3478 175.648 55.0918 175.072 54.5798 174.624C54.0678 174.144 53.2358 173.728 52.0838 173.376C50.9638 172.992 49.4598 172.608 47.5718 172.224C45.1398 171.712 43.0598 171.056 41.3318 170.256C39.6358 169.424 38.3398 168.352 37.4438 167.04C36.5478 165.696 36.0998 164.032 36.0998 162.048C36.0998 160.096 36.6438 158.352 37.7318 156.816C38.8518 155.28 40.4038 154.08 42.3878 153.216C44.3718 152.352 46.7238 151.92 49.4438 151.92C51.6518 151.92 53.5878 152.208 55.2518 152.784C56.9478 153.36 58.3718 154.128 59.5238 155.088C60.6758 156.048 61.5398 157.072 62.1158 158.16C62.7238 159.216 63.0438 160.256 63.0758 161.28C63.0758 161.536 62.9798 161.776 62.7878 162C62.5958 162.192 62.3558 162.288 62.0677 162.288H55.7318C55.3798 162.288 55.0758 162.224 54.8198 162.096C54.5638 161.968 54.3398 161.76 54.1478 161.472C53.9558 160.768 53.4438 160.16 52.6118 159.648C51.8118 159.104 50.7558 158.832 49.4438 158.832C48.0358 158.832 46.9318 159.088 46.1318 159.6C45.3638 160.08 44.9798 160.832 44.9798 161.856C44.9798 162.496 45.1878 163.056 45.6038 163.536C46.0518 164.016 46.7718 164.432 47.7638 164.784C48.7878 165.136 50.1798 165.504 51.9398 165.888C54.8518 166.432 57.2038 167.12 58.9958 167.952C60.7878 168.752 62.0998 169.808 62.9318 171.12C63.7638 172.4 64.1798 174.016 64.1798 175.968C64.1798 178.144 63.5558 180.032 62.3078 181.632C61.0918 183.2 59.3958 184.4 57.2198 185.232C55.0438 186.064 52.5478 186.48 49.7318 186.48ZM77.2489 186C76.8969 186 76.6089 185.888 76.3849 185.664C76.1609 185.44 76.0489 185.152 76.0489 184.8V159.936H67.5049C67.1529 159.936 66.8649 159.824 66.6409 159.6C66.4169 159.344 66.3049 159.056 66.3049 158.736V153.6C66.3049 153.248 66.4169 152.96 66.6409 152.736C66.8649 152.512 67.1529 152.4 67.5049 152.4H93.3289C93.6809 152.4 93.9689 152.512 94.1929 152.736C94.4169 152.96 94.5289 153.248 94.5289 153.6V158.736C94.5289 159.056 94.4169 159.344 94.1929 159.6C93.9689 159.824 93.6809 159.936 93.3289 159.936H84.7849V184.8C84.7849 185.152 84.6729 185.44 84.4489 185.664C84.2249 185.888 83.9369 186 83.5849 186H77.2489ZM100.091 186C99.7393 186 99.4513 185.888 99.2273 185.664C99.0033 185.44 98.8913 185.152 98.8913 184.8V153.6C98.8913 153.248 99.0033 152.96 99.2273 152.736C99.4513 152.512 99.7393 152.4 100.091 152.4H113.147C117.275 152.4 120.523 153.36 122.891 155.28C125.291 157.168 126.491 159.856 126.491 163.344C126.491 165.616 125.931 167.536 124.811 169.104C123.723 170.672 122.283 171.856 120.491 172.656L127.115 184.464C127.211 184.656 127.259 184.832 127.259 184.992C127.259 185.248 127.147 185.488 126.923 185.712C126.731 185.904 126.491 186 126.203 186H119.867C119.259 186 118.811 185.856 118.523 185.568C118.235 185.248 118.027 184.96 117.899 184.704L112.427 174.144H107.483V184.8C107.483 185.152 107.371 185.44 107.147 185.664C106.923 185.888 106.635 186 106.283 186H100.091ZM107.483 167.376H113.051C114.555 167.376 115.675 167.008 116.411 166.272C117.179 165.536 117.563 164.528 117.563 163.248C117.563 162 117.195 160.992 116.459 160.224C115.755 159.456 114.619 159.072 113.051 159.072H107.483V167.376ZM145.666 186.48C142.722 186.48 140.162 186 137.986 185.04C135.81 184.08 134.114 182.64 132.898 180.72C131.682 178.768 131.01 176.336 130.882 173.424C130.85 172.048 130.834 170.672 130.834 169.296C130.834 167.92 130.85 166.528 130.882 165.12C131.01 162.24 131.682 159.824 132.898 157.872C134.146 155.888 135.858 154.4 138.034 153.408C140.21 152.416 142.754 151.92 145.666 151.92C148.546 151.92 151.074 152.416 153.25 153.408C155.458 154.4 157.186 155.888 158.434 157.872C159.682 159.824 160.354 162.24 160.45 165.12C160.514 166.528 160.546 167.92 160.546 169.296C160.546 170.672 160.514 172.048 160.45 173.424C160.322 176.336 159.65 178.768 158.434 180.72C157.218 182.64 155.522 184.08 153.346 185.04C151.17 186 148.61 186.48 145.666 186.48ZM145.666 179.568C147.362 179.568 148.738 179.056 149.794 178.032C150.882 177.008 151.458 175.376 151.522 173.136C151.586 171.728 151.618 170.4 151.618 169.152C151.618 167.904 151.586 166.608 151.522 165.264C151.458 163.76 151.17 162.544 150.658 161.616C150.178 160.656 149.506 159.952 148.642 159.504C147.778 159.056 146.786 158.832 145.666 158.832C144.578 158.832 143.602 159.056 142.738 159.504C141.874 159.952 141.186 160.656 140.674 161.616C140.162 162.544 139.874 163.76 139.81 165.264C139.778 166.608 139.762 167.904 139.762 169.152C139.762 170.4 139.778 171.728 139.81 173.136C139.906 175.376 140.482 177.008 141.538 178.032C142.594 179.056 143.97 179.568 145.666 179.568ZM167.31 186C166.99 186 166.702 185.888 166.446 185.664C166.222 185.44 166.11 185.152 166.11 184.8V153.6C166.11 153.248 166.222 152.96 166.446 152.736C166.702 152.512 166.99 152.4 167.31 152.4H172.494C173.006 152.4 173.39 152.544 173.646 152.832C173.934 153.088 174.11 153.296 174.174 153.456L182.622 168.624L191.07 153.456C191.166 153.296 191.326 153.088 191.55 152.832C191.806 152.544 192.206 152.4 192.75 152.4H197.886C198.238 152.4 198.526 152.512 198.75 152.736C199.006 152.96 199.134 153.248 199.134 153.6V184.8C199.134 185.152 199.006 185.44 198.75 185.664C198.526 185.888 198.238 186 197.886 186H192.174C191.822 186 191.518 185.888 191.262 185.664C191.038 185.44 190.926 185.152 190.926 184.8V166.8L185.502 176.832C185.374 177.12 185.182 177.376 184.926 177.6C184.67 177.824 184.318 177.936 183.87 177.936H181.374C180.926 177.936 180.574 177.824 180.318 177.6C180.062 177.376 179.854 177.12 179.694 176.832L174.27 166.8V184.8C174.27 185.152 174.158 185.44 173.934 185.664C173.71 185.888 173.422 186 173.07 186H167.31ZM203.893 186C203.637 186 203.397 185.904 203.173 185.712C202.981 185.488 202.885 185.248 202.885 184.992C202.885 184.832 202.901 184.688 202.933 184.56L214.213 153.744C214.309 153.392 214.501 153.088 214.789 152.832C215.109 152.544 215.541 152.4 216.085 152.4H223.189C223.733 152.4 224.149 152.544 224.437 152.832C224.757 153.088 224.965 153.392 225.061 153.744L236.293 184.56C236.357 184.688 236.389 184.832 236.389 184.992C236.389 185.248 236.277 185.488 236.053 185.712C235.861 185.904 235.621 186 235.333 186H229.429C228.949 186 228.581 185.888 228.325 185.664C228.101 185.408 227.957 185.184 227.893 184.992L226.021 180.096H213.205L211.381 184.992C211.317 185.184 211.173 185.408 210.949 185.664C210.725 185.888 210.341 186 209.797 186H203.893ZM215.173 173.184H224.101L219.589 160.512L215.173 173.184Z" fill="#374151"/>
</svg>
