<svg width="68" height="88" viewBox="0 0 68 88" fill="none" xmlns="http://www.w3.org/2000/svg">
<path d="M0.72 82C0.592 82 0.472 81.952 0.36 81.856C0.264 81.744 0.216 81.624 0.216 81.496C0.216 81.416 0.224 81.344 0.24 81.28L5.88 65.872C5.928 65.696 6.024 65.544 6.168 65.416C6.328 65.272 6.544 65.2 6.816 65.2H10.368C10.64 65.2 10.848 65.272 10.992 65.416C11.152 65.544 11.256 65.696 11.304 65.872L16.92 81.28C16.952 81.344 16.968 81.416 16.968 81.496C16.968 81.624 16.912 81.744 16.8 81.856C16.704 81.952 16.584 82 16.44 82H13.488C13.248 82 13.064 81.944 12.936 81.832C12.824 81.704 12.752 81.592 12.72 81.496L11.784 79.048H5.376L4.464 81.496C4.432 81.592 4.36 81.704 4.248 81.832C4.136 81.944 3.944 82 3.672 82H0.72ZM6.36 75.592H10.824L8.568 69.256L6.36 75.592ZM23.7317 82.24C22.6917 82.24 21.8037 82.128 21.0677 81.904C20.3477 81.664 19.7557 81.376 19.2917 81.04C18.8437 80.704 18.5077 80.36 18.2837 80.008C18.0597 79.64 17.9397 79.328 17.9237 79.072C17.9077 78.896 17.9637 78.752 18.0917 78.64C18.2197 78.512 18.3557 78.448 18.4997 78.448H21.2357C21.2837 78.448 21.3237 78.456 21.3557 78.472C21.3877 78.488 21.4357 78.52 21.4997 78.568C21.7077 78.68 21.9157 78.824 22.1237 79C22.3317 79.16 22.5717 79.304 22.8437 79.432C23.1157 79.56 23.4437 79.624 23.8277 79.624C24.2757 79.624 24.6517 79.536 24.9557 79.36C25.2597 79.184 25.4117 78.92 25.4117 78.568C25.4117 78.312 25.3397 78.104 25.1957 77.944C25.0517 77.768 24.7557 77.6 24.3077 77.44C23.8757 77.28 23.2197 77.12 22.3397 76.96C21.5077 76.768 20.7797 76.52 20.1557 76.216C19.5317 75.896 19.0517 75.488 18.7157 74.992C18.3797 74.48 18.2117 73.864 18.2117 73.144C18.2117 72.504 18.4197 71.888 18.8357 71.296C19.2517 70.704 19.8597 70.224 20.6597 69.856C21.4597 69.472 22.4437 69.28 23.6117 69.28C24.5397 69.28 25.3397 69.392 26.0117 69.616C26.6997 69.824 27.2757 70.096 27.7397 70.432C28.2197 70.768 28.5797 71.112 28.8197 71.464C29.0597 71.816 29.1877 72.136 29.2037 72.424C29.2197 72.584 29.1717 72.728 29.0597 72.856C28.9477 72.968 28.8197 73.024 28.6757 73.024H26.1797C26.1157 73.024 26.0517 73.016 25.9877 73C25.9237 72.968 25.8677 72.936 25.8197 72.904C25.6277 72.808 25.4357 72.68 25.2437 72.52C25.0517 72.36 24.8277 72.216 24.5717 72.088C24.3157 71.96 23.9957 71.896 23.6117 71.896C23.1797 71.896 22.8437 71.992 22.6037 72.184C22.3637 72.376 22.2437 72.624 22.2437 72.928C22.2437 73.136 22.3077 73.328 22.4357 73.504C22.5797 73.68 22.8597 73.84 23.2757 73.984C23.7077 74.128 24.3717 74.288 25.2677 74.464C26.3717 74.64 27.2517 74.928 27.9077 75.328C28.5637 75.712 29.0277 76.168 29.2997 76.696C29.5717 77.208 29.7077 77.752 29.7077 78.328C29.7077 79.096 29.4757 79.776 29.0117 80.368C28.5637 80.96 27.8917 81.424 26.9957 81.76C26.0997 82.08 25.0117 82.24 23.7317 82.24ZM38.175 82C37.151 82 36.263 81.84 35.511 81.52C34.775 81.184 34.207 80.672 33.807 79.984C33.407 79.28 33.207 78.376 33.207 77.272V72.664H31.335C31.159 72.664 31.007 72.608 30.879 72.496C30.767 72.384 30.711 72.24 30.711 72.064V70.12C30.711 69.944 30.767 69.8 30.879 69.688C31.007 69.576 31.159 69.52 31.335 69.52H33.207V65.56C33.207 65.384 33.263 65.24 33.375 65.128C33.503 65.016 33.647 64.96 33.807 64.96H36.591C36.767 64.96 36.911 65.016 37.023 65.128C37.135 65.24 37.191 65.384 37.191 65.56V69.52H40.191C40.367 69.52 40.511 69.576 40.623 69.688C40.735 69.8 40.791 69.944 40.791 70.12V72.064C40.791 72.24 40.735 72.384 40.623 72.496C40.511 72.608 40.367 72.664 40.191 72.664H37.191V76.936C37.191 77.48 37.295 77.912 37.503 78.232C37.711 78.552 38.063 78.712 38.559 78.712H40.407C40.583 78.712 40.727 78.768 40.839 78.88C40.951 78.992 41.007 79.136 41.007 79.312V81.4C41.007 81.576 40.951 81.72 40.839 81.832C40.727 81.944 40.583 82 40.407 82H38.175ZM43.5941 82C43.4181 82 43.2741 81.944 43.1621 81.832C43.0501 81.72 42.9941 81.576 42.9941 81.4V70.12C42.9941 69.96 43.0501 69.824 43.1621 69.712C43.2741 69.584 43.4181 69.52 43.5941 69.52H46.3541C46.5301 69.52 46.6741 69.584 46.7861 69.712C46.8981 69.824 46.9541 69.96 46.9541 70.12V71.08C47.3861 70.584 47.8981 70.2 48.4901 69.928C49.0981 69.656 49.7781 69.52 50.5301 69.52H51.5861C51.7461 69.52 51.8821 69.576 51.9941 69.688C52.1221 69.8 52.1861 69.944 52.1861 70.12V72.592C52.1861 72.752 52.1221 72.896 51.9941 73.024C51.8821 73.136 51.7461 73.192 51.5861 73.192H49.2581C48.6021 73.192 48.0901 73.376 47.7221 73.744C47.3701 74.096 47.1941 74.6 47.1941 75.256V81.4C47.1941 81.576 47.1301 81.72 47.0021 81.832C46.8901 81.944 46.7461 82 46.5701 82H43.5941ZM59.7028 82.24C58.3588 82.24 57.2228 82.024 56.2948 81.592C55.3828 81.16 54.6788 80.544 54.1828 79.744C53.7028 78.928 53.4308 77.96 53.3668 76.84C53.3508 76.52 53.3428 76.16 53.3428 75.76C53.3428 75.344 53.3508 74.984 53.3668 74.68C53.4308 73.544 53.7188 72.576 54.2308 71.776C54.7428 70.976 55.4548 70.36 56.3668 69.928C57.2948 69.496 58.4068 69.28 59.7028 69.28C61.0148 69.28 62.1268 69.496 63.0388 69.928C63.9668 70.36 64.6868 70.976 65.1988 71.776C65.7108 72.576 65.9988 73.544 66.0628 74.68C66.0788 74.984 66.0868 75.344 66.0868 75.76C66.0868 76.16 66.0788 76.52 66.0628 76.84C65.9988 77.96 65.7188 78.928 65.2228 79.744C64.7428 80.544 64.0388 81.16 63.1108 81.592C62.1988 82.024 61.0628 82.24 59.7028 82.24ZM59.7028 79.312C60.4228 79.312 60.9428 79.096 61.2628 78.664C61.5988 78.232 61.7908 77.584 61.8388 76.72C61.8548 76.48 61.8628 76.16 61.8628 75.76C61.8628 75.36 61.8548 75.04 61.8388 74.8C61.7908 73.952 61.5988 73.312 61.2628 72.88C60.9428 72.432 60.4228 72.208 59.7028 72.208C58.9988 72.208 58.4788 72.432 58.1428 72.88C57.8068 73.312 57.6228 73.952 57.5908 74.8C57.5748 75.04 57.5668 75.36 57.5668 75.76C57.5668 76.16 57.5748 76.48 57.5908 76.72C57.6228 77.584 57.8068 78.232 58.1428 78.664C58.4788 79.096 58.9988 79.312 59.7028 79.312Z" fill="#1C64F2"/>
<rect x="8" width="52" height="52" rx="10" fill="#1C64F2"/>
<path d="M25.72 34C25.592 34 25.472 33.952 25.36 33.856C25.264 33.744 25.216 33.624 25.216 33.496C25.216 33.416 25.224 33.344 25.24 33.28L30.88 17.872C30.928 17.696 31.024 17.544 31.168 17.416C31.328 17.272 31.544 17.2 31.816 17.2H35.368C35.64 17.2 35.848 17.272 35.992 17.416C36.152 17.544 36.256 17.696 36.304 17.872L41.92 33.28C41.952 33.344 41.968 33.416 41.968 33.496C41.968 33.624 41.912 33.744 41.8 33.856C41.704 33.952 41.584 34 41.44 34H38.488C38.248 34 38.064 33.944 37.936 33.832C37.824 33.704 37.752 33.592 37.72 33.496L36.784 31.048H30.376L29.464 33.496C29.432 33.592 29.36 33.704 29.248 33.832C29.136 33.944 28.944 34 28.672 34H25.72ZM31.36 27.592H35.824L33.568 21.256L31.36 27.592Z" fill="white"/>
</svg>
