<svg width="178" height="172" viewBox="0 0 178 172" fill="none" xmlns="http://www.w3.org/2000/svg">
<path fill-rule="evenodd" clip-rule="evenodd" d="M153 54.9286C151.537 61.0437 147.248 63.9425 135.106 63.9425C131.147 63.9425 128.023 63.6028 125.56 62.9344C124.992 43.6335 109.043 28.1602 89.452 28.1602C71.9403 28.1602 57.3391 40.5231 54.031 56.9318C51.2645 58.0771 47.2355 58.7198 41.3801 58.7198C32.1134 58.7198 27.4212 58.6172 25.0678 56.5123C28.8049 24.6942 56.0644 0 89.137 0C121.659 0 148.56 23.8785 153 54.9286ZM53.4644 67.1294C50.7226 65.925 46.8476 65.3372 41.3801 65.3372C32.0235 65.3372 27.3305 67.235 25 70.8853C28.4616 102.994 55.8559 128 89.137 128C120.514 128 146.659 105.773 152.448 76.3224C150.563 72.7809 145.99 70.56 135.106 70.56C130.797 70.56 127.478 70.5821 124.923 70.8174C121.714 87.3509 107.053 99.8402 89.452 99.8402C70.5642 99.8402 55.0622 85.4579 53.4644 67.1294ZM96.1948 44.4975C96.1948 42.6278 93.8576 41.7805 92.6594 43.2159L76.3881 62.7092C75.301 64.0115 76.227 65.9908 77.9235 65.9908H84.978V82.6836C84.978 84.5534 87.3152 85.4007 88.5134 83.9652L104.785 64.472C105.872 63.1696 104.946 61.1904 103.249 61.1904H96.1948V44.4975Z" fill="#3657D2"/>
<path d="M1.08 171C0.888 171 0.708 170.928 0.54 170.784C0.396 170.616 0.324 170.436 0.324 170.244C0.324 170.124 0.336 170.016 0.36 169.92L8.82 146.808C8.892 146.544 9.036 146.316 9.252 146.124C9.492 145.908 9.816 145.8 10.224 145.8H15.552C15.96 145.8 16.272 145.908 16.488 146.124C16.728 146.316 16.884 146.544 16.956 146.808L25.38 169.92C25.428 170.016 25.452 170.124 25.452 170.244C25.452 170.436 25.368 170.616 25.2 170.784C25.056 170.928 24.876 171 24.66 171H20.232C19.872 171 19.596 170.916 19.404 170.748C19.236 170.556 19.128 170.388 19.08 170.244L17.676 166.572H8.064L6.696 170.244C6.648 170.388 6.54 170.556 6.372 170.748C6.204 170.916 5.916 171 5.508 171H1.08ZM9.54 161.388H16.236L12.852 151.884L9.54 161.388ZM37.2988 171.36C34.8988 171.36 32.9068 171.024 31.3228 170.352C29.7388 169.656 28.5388 168.756 27.7228 167.652C26.9068 166.548 26.4748 165.372 26.4268 164.124C26.4268 163.932 26.4988 163.764 26.6428 163.62C26.8108 163.452 27.0028 163.368 27.2188 163.368H31.7548C32.0908 163.368 32.3428 163.428 32.5108 163.548C32.7028 163.668 32.8708 163.824 33.0148 164.016C33.2068 164.376 33.4708 164.724 33.8068 165.06C34.1668 165.396 34.6228 165.672 35.1748 165.888C35.7508 166.08 36.4588 166.176 37.2988 166.176C38.6908 166.176 39.7348 165.96 40.4308 165.528C41.1508 165.096 41.5108 164.508 41.5108 163.764C41.5108 163.236 41.3188 162.804 40.9348 162.468C40.5508 162.108 39.9268 161.796 39.0628 161.532C38.2228 161.244 37.0948 160.956 35.6788 160.668C33.8548 160.284 32.2948 159.792 30.9988 159.192C29.7268 158.568 28.7548 157.764 28.0828 156.78C27.4108 155.772 27.0748 154.524 27.0748 153.036C27.0748 151.572 27.4828 150.264 28.2988 149.112C29.1388 147.96 30.3028 147.06 31.7908 146.412C33.2788 145.764 35.0428 145.44 37.0828 145.44C38.7388 145.44 40.1908 145.656 41.4388 146.088C42.7108 146.52 43.7788 147.096 44.6428 147.816C45.5068 148.536 46.1548 149.304 46.5868 150.12C47.0428 150.912 47.2828 151.692 47.3068 152.46C47.3068 152.652 47.2348 152.832 47.0908 153C46.9468 153.144 46.7668 153.216 46.5508 153.216H41.7988C41.5348 153.216 41.3068 153.168 41.1148 153.072C40.9228 152.976 40.7548 152.82 40.6108 152.604C40.4668 152.076 40.0828 151.62 39.4588 151.236C38.8588 150.828 38.0668 150.624 37.0828 150.624C36.0268 150.624 35.1988 150.816 34.5988 151.2C34.0228 151.56 33.7348 152.124 33.7348 152.892C33.7348 153.372 33.8908 153.792 34.2028 154.152C34.5388 154.512 35.0788 154.824 35.8228 155.088C36.5908 155.352 37.6348 155.628 38.9548 155.916C41.1388 156.324 42.9028 156.84 44.2468 157.464C45.5908 158.064 46.5748 158.856 47.1988 159.84C47.8228 160.8 48.1348 162.012 48.1348 163.476C48.1348 165.108 47.6668 166.524 46.7308 167.724C45.8188 168.9 44.5468 169.8 42.9148 170.424C41.2828 171.048 39.4108 171.36 37.2988 171.36ZM57.9367 171C57.6727 171 57.4567 170.916 57.2887 170.748C57.1207 170.58 57.0367 170.364 57.0367 170.1V151.452H50.6287C50.3647 151.452 50.1487 151.368 49.9807 151.2C49.8127 151.008 49.7287 150.792 49.7287 150.552V146.7C49.7287 146.436 49.8127 146.22 49.9807 146.052C50.1487 145.884 50.3647 145.8 50.6287 145.8H69.9967C70.2607 145.8 70.4767 145.884 70.6447 146.052C70.8127 146.22 70.8967 146.436 70.8967 146.7V150.552C70.8967 150.792 70.8127 151.008 70.6447 151.2C70.4767 151.368 70.2607 151.452 69.9967 151.452H63.5887V170.1C63.5887 170.364 63.5047 170.58 63.3367 170.748C63.1687 170.916 62.9527 171 62.6887 171H57.9367ZM75.0684 171C74.8044 171 74.5884 170.916 74.4204 170.748C74.2524 170.58 74.1684 170.364 74.1684 170.1V146.7C74.1684 146.436 74.2524 146.22 74.4204 146.052C74.5884 145.884 74.8044 145.8 75.0684 145.8H84.8604C87.9564 145.8 90.3924 146.52 92.1684 147.96C93.9684 149.376 94.8684 151.392 94.8684 154.008C94.8684 155.712 94.4484 157.152 93.6084 158.328C92.7924 159.504 91.7124 160.392 90.3684 160.992L95.3364 169.848C95.4084 169.992 95.4444 170.124 95.4444 170.244C95.4444 170.436 95.3604 170.616 95.1924 170.784C95.0484 170.928 94.8684 171 94.6524 171H89.9004C89.4444 171 89.1084 170.892 88.8924 170.676C88.6764 170.436 88.5204 170.22 88.4244 170.028L84.3204 162.108H80.6124V170.1C80.6124 170.364 80.5284 170.58 80.3604 170.748C80.1924 170.916 79.9764 171 79.7124 171H75.0684ZM80.6124 157.032H84.7884C85.9164 157.032 86.7564 156.756 87.3084 156.204C87.8844 155.652 88.1724 154.896 88.1724 153.936C88.1724 153 87.8964 152.244 87.3444 151.668C86.8164 151.092 85.9644 150.804 84.7884 150.804H80.6124V157.032ZM109.25 171.36C107.042 171.36 105.122 171 103.49 170.28C101.858 169.56 100.586 168.48 99.6736 167.04C98.7616 165.576 98.2576 163.752 98.1616 161.568C98.1376 160.536 98.1256 159.504 98.1256 158.472C98.1256 157.44 98.1376 156.396 98.1616 155.34C98.2576 153.18 98.7616 151.368 99.6736 149.904C100.61 148.416 101.894 147.3 103.526 146.556C105.158 145.812 107.066 145.44 109.25 145.44C111.41 145.44 113.306 145.812 114.938 146.556C116.594 147.3 117.89 148.416 118.826 149.904C119.762 151.368 120.266 153.18 120.338 155.34C120.386 156.396 120.41 157.44 120.41 158.472C120.41 159.504 120.386 160.536 120.338 161.568C120.242 163.752 119.738 165.576 118.826 167.04C117.914 168.48 116.642 169.56 115.01 170.28C113.378 171 111.458 171.36 109.25 171.36ZM109.25 166.176C110.522 166.176 111.554 165.792 112.346 165.024C113.162 164.256 113.594 163.032 113.642 161.352C113.69 160.296 113.714 159.3 113.714 158.364C113.714 157.428 113.69 156.456 113.642 155.448C113.594 154.32 113.378 153.408 112.994 152.712C112.634 151.992 112.13 151.464 111.482 151.128C110.834 150.792 110.09 150.624 109.25 150.624C108.434 150.624 107.702 150.792 107.054 151.128C106.406 151.464 105.89 151.992 105.506 152.712C105.122 153.408 104.906 154.32 104.858 155.448C104.834 156.456 104.822 157.428 104.822 158.364C104.822 159.3 104.834 160.296 104.858 161.352C104.93 163.032 105.362 164.256 106.154 165.024C106.946 165.792 107.978 166.176 109.25 166.176ZM125.483 171C125.243 171 125.027 170.916 124.835 170.748C124.667 170.58 124.583 170.364 124.583 170.1V146.7C124.583 146.436 124.667 146.22 124.835 146.052C125.027 145.884 125.243 145.8 125.483 145.8H129.371C129.755 145.8 130.043 145.908 130.235 146.124C130.451 146.316 130.583 146.472 130.631 146.592L136.967 157.968L143.303 146.592C143.375 146.472 143.495 146.316 143.663 146.124C143.855 145.908 144.155 145.8 144.562 145.8H148.415C148.679 145.8 148.895 145.884 149.063 146.052C149.255 146.22 149.351 146.436 149.351 146.7V170.1C149.351 170.364 149.255 170.58 149.063 170.748C148.895 170.916 148.679 171 148.415 171H144.131C143.867 171 143.639 170.916 143.447 170.748C143.279 170.58 143.195 170.364 143.195 170.1V156.6L139.127 164.124C139.031 164.34 138.887 164.532 138.695 164.7C138.503 164.868 138.239 164.952 137.903 164.952H136.031C135.695 164.952 135.431 164.868 135.239 164.7C135.047 164.532 134.891 164.34 134.771 164.124L130.703 156.6V170.1C130.703 170.364 130.619 170.58 130.451 170.748C130.283 170.916 130.067 171 129.803 171H125.483ZM152.92 171C152.728 171 152.548 170.928 152.38 170.784C152.236 170.616 152.164 170.436 152.164 170.244C152.164 170.124 152.176 170.016 152.2 169.92L160.66 146.808C160.732 146.544 160.876 146.316 161.092 146.124C161.332 145.908 161.656 145.8 162.064 145.8H167.392C167.8 145.8 168.112 145.908 168.328 146.124C168.568 146.316 168.724 146.544 168.796 146.808L177.22 169.92C177.268 170.016 177.292 170.124 177.292 170.244C177.292 170.436 177.208 170.616 177.04 170.784C176.896 170.928 176.716 171 176.5 171H172.072C171.712 171 171.436 170.916 171.244 170.748C171.076 170.556 170.968 170.388 170.92 170.244L169.516 166.572H159.904L158.536 170.244C158.488 170.388 158.38 170.556 158.212 170.748C158.044 170.916 157.756 171 157.348 171H152.92ZM161.38 161.388H168.076L164.692 151.884L161.38 161.388Z" fill="#3657D2"/>
</svg>
