<svg width="184" height="184" viewBox="0 0 184 184" fill="none" xmlns="http://www.w3.org/2000/svg">
<g filter="url(#filter0_d_8_4)">
<circle cx="92" cy="92" r="72" fill="#0F1628"/>
</g>
<path fill-rule="evenodd" clip-rule="evenodd" d="M156 82.9286C154.537 89.0437 150.248 91.9425 138.106 91.9425C134.147 91.9425 131.023 91.6028 128.56 90.9344C127.992 71.6335 112.043 56.1602 92.452 56.1602C74.9403 56.1602 60.3391 68.5231 57.031 84.9318C54.2645 86.0771 50.2355 86.7198 44.3801 86.7198C35.1134 86.7198 30.4212 86.6172 28.0678 84.5123C31.8049 52.6942 59.0644 28 92.137 28C124.659 28 151.56 51.8785 156 82.9286ZM56.4644 95.1294C53.7226 93.925 49.8476 93.3372 44.3801 93.3372C35.0235 93.3372 30.3305 95.235 28 98.8853C31.4616 130.994 58.8559 156 92.137 156C123.514 156 149.659 133.773 155.448 104.322C153.563 100.781 148.99 98.56 138.106 98.56C133.797 98.56 130.478 98.5821 127.923 98.8174C124.714 115.351 110.053 127.84 92.452 127.84C73.5642 127.84 58.0622 113.458 56.4644 95.1294ZM99.1948 72.4975C99.1948 70.6278 96.8576 69.7805 95.6594 71.2159L79.3881 90.7092C78.301 92.0115 79.227 93.9908 80.9235 93.9908H87.978V110.684C87.978 112.553 90.3152 113.401 91.5134 111.965L107.785 92.472C108.872 91.1696 107.946 89.1904 106.249 89.1904H99.1948V72.4975Z" fill="#3657D2"/>
<defs>
<filter id="filter0_d_8_4" x="0" y="0" width="184" height="184" filterUnits="userSpaceOnUse" color-interpolation-filters="sRGB">
<feFlood flood-opacity="0" result="BackgroundImageFix"/>
<feColorMatrix in="SourceAlpha" type="matrix" values="0 0 0 0 0 0 0 0 0 0 0 0 0 0 0 0 0 0 127 0" result="hardAlpha"/>
<feMorphology radius="10" operator="dilate" in="SourceAlpha" result="effect1_dropShadow_8_4"/>
<feOffset/>
<feGaussianBlur stdDeviation="5"/>
<feComposite in2="hardAlpha" operator="out"/>
<feColorMatrix type="matrix" values="0 0 0 0 0.211765 0 0 0 0 0.341176 0 0 0 0 0.823529 0 0 0 0.25 0"/>
<feBlend mode="normal" in2="BackgroundImageFix" result="effect1_dropShadow_8_4"/>
<feBlend mode="normal" in="SourceGraphic" in2="effect1_dropShadow_8_4" result="shape"/>
</filter>
</defs>
</svg>
