<svg width="128" height="52" viewBox="0 0 128 52" fill="none" xmlns="http://www.w3.org/2000/svg">
<path d="M60.72 34C60.592 34 60.472 33.952 60.36 33.856C60.264 33.744 60.216 33.624 60.216 33.496C60.216 33.416 60.224 33.344 60.24 33.28L65.88 17.872C65.928 17.696 66.024 17.544 66.168 17.416C66.328 17.272 66.544 17.2 66.816 17.2H70.368C70.64 17.2 70.848 17.272 70.992 17.416C71.152 17.544 71.256 17.696 71.304 17.872L76.92 33.28C76.952 33.344 76.968 33.416 76.968 33.496C76.968 33.624 76.912 33.744 76.8 33.856C76.704 33.952 76.584 34 76.44 34H73.488C73.248 34 73.064 33.944 72.936 33.832C72.824 33.704 72.752 33.592 72.72 33.496L71.784 31.048H65.376L64.464 33.496C64.432 33.592 64.36 33.704 64.248 33.832C64.136 33.944 63.944 34 63.672 34H60.72ZM66.36 27.592H70.824L68.568 21.256L66.36 27.592ZM83.7317 34.24C82.6917 34.24 81.8037 34.128 81.0677 33.904C80.3477 33.664 79.7557 33.376 79.2917 33.04C78.8437 32.704 78.5077 32.36 78.2837 32.008C78.0597 31.64 77.9397 31.328 77.9237 31.072C77.9077 30.896 77.9637 30.752 78.0917 30.64C78.2197 30.512 78.3557 30.448 78.4997 30.448H81.2357C81.2837 30.448 81.3237 30.456 81.3557 30.472C81.3877 30.488 81.4357 30.52 81.4997 30.568C81.7077 30.68 81.9157 30.824 82.1237 31C82.3317 31.16 82.5717 31.304 82.8437 31.432C83.1157 31.56 83.4437 31.624 83.8277 31.624C84.2757 31.624 84.6517 31.536 84.9557 31.36C85.2597 31.184 85.4117 30.92 85.4117 30.568C85.4117 30.312 85.3397 30.104 85.1957 29.944C85.0517 29.768 84.7557 29.6 84.3077 29.44C83.8757 29.28 83.2197 29.12 82.3397 28.96C81.5077 28.768 80.7797 28.52 80.1557 28.216C79.5317 27.896 79.0517 27.488 78.7157 26.992C78.3797 26.48 78.2117 25.864 78.2117 25.144C78.2117 24.504 78.4197 23.888 78.8357 23.296C79.2517 22.704 79.8597 22.224 80.6597 21.856C81.4597 21.472 82.4437 21.28 83.6117 21.28C84.5397 21.28 85.3397 21.392 86.0117 21.616C86.6997 21.824 87.2757 22.096 87.7397 22.432C88.2197 22.768 88.5797 23.112 88.8197 23.464C89.0597 23.816 89.1877 24.136 89.2037 24.424C89.2197 24.584 89.1717 24.728 89.0597 24.856C88.9477 24.968 88.8197 25.024 88.6757 25.024H86.1797C86.1157 25.024 86.0517 25.016 85.9877 25C85.9237 24.968 85.8677 24.936 85.8197 24.904C85.6277 24.808 85.4357 24.68 85.2437 24.52C85.0517 24.36 84.8277 24.216 84.5717 24.088C84.3157 23.96 83.9957 23.896 83.6117 23.896C83.1797 23.896 82.8437 23.992 82.6037 24.184C82.3637 24.376 82.2437 24.624 82.2437 24.928C82.2437 25.136 82.3077 25.328 82.4357 25.504C82.5797 25.68 82.8597 25.84 83.2757 25.984C83.7077 26.128 84.3717 26.288 85.2677 26.464C86.3717 26.64 87.2517 26.928 87.9077 27.328C88.5637 27.712 89.0277 28.168 89.2997 28.696C89.5717 29.208 89.7077 29.752 89.7077 30.328C89.7077 31.096 89.4757 31.776 89.0117 32.368C88.5637 32.96 87.8917 33.424 86.9957 33.76C86.0997 34.08 85.0117 34.24 83.7317 34.24ZM98.175 34C97.151 34 96.263 33.84 95.511 33.52C94.775 33.184 94.207 32.672 93.807 31.984C93.407 31.28 93.207 30.376 93.207 29.272V24.664H91.335C91.159 24.664 91.007 24.608 90.879 24.496C90.767 24.384 90.711 24.24 90.711 24.064V22.12C90.711 21.944 90.767 21.8 90.879 21.688C91.007 21.576 91.159 21.52 91.335 21.52H93.207V17.56C93.207 17.384 93.263 17.24 93.375 17.128C93.503 17.016 93.647 16.96 93.807 16.96H96.591C96.767 16.96 96.911 17.016 97.023 17.128C97.135 17.24 97.191 17.384 97.191 17.56V21.52H100.191C100.367 21.52 100.511 21.576 100.623 21.688C100.735 21.8 100.791 21.944 100.791 22.12V24.064C100.791 24.24 100.735 24.384 100.623 24.496C100.511 24.608 100.367 24.664 100.191 24.664H97.191V28.936C97.191 29.48 97.295 29.912 97.503 30.232C97.711 30.552 98.063 30.712 98.559 30.712H100.407C100.583 30.712 100.727 30.768 100.839 30.88C100.951 30.992 101.007 31.136 101.007 31.312V33.4C101.007 33.576 100.951 33.72 100.839 33.832C100.727 33.944 100.583 34 100.407 34H98.175ZM103.594 34C103.418 34 103.274 33.944 103.162 33.832C103.05 33.72 102.994 33.576 102.994 33.4V22.12C102.994 21.96 103.05 21.824 103.162 21.712C103.274 21.584 103.418 21.52 103.594 21.52H106.354C106.53 21.52 106.674 21.584 106.786 21.712C106.898 21.824 106.954 21.96 106.954 22.12V23.08C107.386 22.584 107.898 22.2 108.49 21.928C109.098 21.656 109.778 21.52 110.53 21.52H111.586C111.746 21.52 111.882 21.576 111.994 21.688C112.122 21.8 112.186 21.944 112.186 22.12V24.592C112.186 24.752 112.122 24.896 111.994 25.024C111.882 25.136 111.746 25.192 111.586 25.192H109.258C108.602 25.192 108.09 25.376 107.722 25.744C107.37 26.096 107.194 26.6 107.194 27.256V33.4C107.194 33.576 107.13 33.72 107.002 33.832C106.89 33.944 106.746 34 106.57 34H103.594ZM119.703 34.24C118.359 34.24 117.223 34.024 116.295 33.592C115.383 33.16 114.679 32.544 114.183 31.744C113.703 30.928 113.431 29.96 113.367 28.84C113.351 28.52 113.343 28.16 113.343 27.76C113.343 27.344 113.351 26.984 113.367 26.68C113.431 25.544 113.719 24.576 114.231 23.776C114.743 22.976 115.455 22.36 116.367 21.928C117.295 21.496 118.407 21.28 119.703 21.28C121.015 21.28 122.127 21.496 123.039 21.928C123.967 22.36 124.687 22.976 125.199 23.776C125.711 24.576 125.999 25.544 126.063 26.68C126.079 26.984 126.087 27.344 126.087 27.76C126.087 28.16 126.079 28.52 126.063 28.84C125.999 29.96 125.719 30.928 125.223 31.744C124.743 32.544 124.039 33.16 123.111 33.592C122.199 34.024 121.063 34.24 119.703 34.24ZM119.703 31.312C120.423 31.312 120.943 31.096 121.263 30.664C121.599 30.232 121.791 29.584 121.839 28.72C121.855 28.48 121.863 28.16 121.863 27.76C121.863 27.36 121.855 27.04 121.839 26.8C121.791 25.952 121.599 25.312 121.263 24.88C120.943 24.432 120.423 24.208 119.703 24.208C118.999 24.208 118.479 24.432 118.143 24.88C117.807 25.312 117.623 25.952 117.591 26.8C117.575 27.04 117.567 27.36 117.567 27.76C117.567 28.16 117.575 28.48 117.591 28.72C117.623 29.584 117.807 30.232 118.143 30.664C118.479 31.096 118.999 31.312 119.703 31.312Z" fill="#1C64F2"/>
<rect width="52" height="52" rx="10" fill="#1C64F2"/>
<path d="M17.72 34C17.592 34 17.472 33.952 17.36 33.856C17.264 33.744 17.216 33.624 17.216 33.496C17.216 33.416 17.224 33.344 17.24 33.28L22.88 17.872C22.928 17.696 23.024 17.544 23.168 17.416C23.328 17.272 23.544 17.2 23.816 17.2H27.368C27.64 17.2 27.848 17.272 27.992 17.416C28.152 17.544 28.256 17.696 28.304 17.872L33.92 33.28C33.952 33.344 33.968 33.416 33.968 33.496C33.968 33.624 33.912 33.744 33.8 33.856C33.704 33.952 33.584 34 33.44 34H30.488C30.248 34 30.064 33.944 29.936 33.832C29.824 33.704 29.752 33.592 29.72 33.496L28.784 31.048H22.376L21.464 33.496C21.432 33.592 21.36 33.704 21.248 33.832C21.136 33.944 20.944 34 20.672 34H17.72ZM23.36 27.592H27.824L25.568 21.256L23.36 27.592Z" fill="white"/>
</svg>
